<svg xmlns="http://www.w3.org/2000/svg" xmlns:xlink="http://www.w3.org/1999/xlink" width="500" zoomAndPan="magnify" viewBox="0 0 375 374.999991" height="500" preserveAspectRatio="xMidYMid meet" version="1.0"><defs><g/><clipPath id="ebac27b45c"><path d="M 140.804688 136 L 148 136 L 148 143 L 140.804688 143 Z M 140.804688 136 " clip-rule="nonzero"/></clipPath><clipPath id="ef4680bec1"><path d="M 169 112.148438 L 234 112.148438 L 234 176.648438 L 169 176.648438 Z M 169 112.148438 " clip-rule="nonzero"/></clipPath></defs><path fill="#000000" d="M 163.445312 144.050781 C 159.253906 143.921875 155.082031 144.03125 150.890625 144.03125 C 150.890625 148.203125 150.871094 152.375 150.890625 156.566406 L 150.871094 156.957031 C 155.0625 157.085938 159.253906 156.976562 163.445312 156.976562 L 163.425781 156.566406 C 163.460938 152.394531 163.445312 148.222656 163.445312 144.050781 Z M 163.445312 144.050781 " fill-opacity="1" fill-rule="nonzero"/><path fill="#000000" d="M 155.0625 129.320312 L 164.414062 129.320312 L 164.414062 138.667969 L 155.0625 138.667969 Z M 155.0625 129.320312 " fill-opacity="1" fill-rule="nonzero"/><g clip-path="url(#ebac27b45c)"><path fill="#000000" d="M 140.832031 136.339844 L 147.109375 136.339844 L 147.109375 142.617188 L 140.832031 142.617188 Z M 140.832031 136.339844 " fill-opacity="1" fill-rule="nonzero"/></g><g clip-path="url(#ef4680bec1)"><path fill="#000000" d="M 233.769531 157.886719 C 233.769531 155.671875 233.808594 153.457031 233.769531 151.238281 C 233.808594 145.316406 233.808594 139.394531 233.734375 133.472656 C 233.695312 131.03125 233.789062 128.59375 233.808594 126.171875 C 233.824219 124.664062 234.085938 123.191406 233.898438 121.699219 C 233.546875 118.832031 232 116.019531 229.652344 114.269531 C 226.804688 112.148438 223.5625 112.554688 220.230469 112.574219 C 211.53125 112.632812 202.816406 112.6875 194.117188 112.648438 C 189.890625 112.632812 185.679688 112.59375 181.453125 112.539062 C 178.921875 112.5 176.425781 113.171875 174.300781 114.53125 C 174.285156 114.53125 174.265625 114.550781 174.265625 114.550781 C 170 117.285156 169.386719 122.894531 169.757812 127.511719 L 180.691406 127.511719 L 180.691406 139.507812 L 169.738281 139.507812 C 169.777344 143.453125 169.570312 147.441406 169.777344 151.386719 L 178.660156 151.386719 L 178.660156 160.738281 L 169.71875 160.738281 C 169.703125 161.519531 169.71875 163.269531 169.71875 163.476562 C 169.554688 166.34375 170.128906 169.324219 171.675781 171.761719 C 173.242188 174.222656 176.257812 176.679688 179.3125 176.679688 C 187.359375 176.476562 195.402344 176.679688 203.449219 176.753906 C 207.417969 176.792969 211.402344 176.8125 215.367188 176.734375 C 217.0625 176.699219 218.777344 176.660156 220.472656 176.625 C 222.242188 176.605469 224.046875 176.699219 225.796875 176.308594 C 229.617188 175.414062 234.160156 171.929688 233.9375 167.589844 C 233.789062 164.351562 233.769531 161.109375 233.769531 157.886719 Z M 183.988281 148.410156 L 177.5625 148.410156 L 177.5625 141.984375 L 183.988281 141.984375 Z M 217.34375 146.863281 L 194.566406 160.011719 C 192.648438 161.128906 190.246094 159.730469 190.246094 157.515625 L 190.246094 131.21875 C 190.246094 129 192.648438 127.605469 194.566406 128.722656 L 217.34375 141.871094 C 219.261719 142.96875 219.261719 145.746094 217.34375 146.863281 Z M 217.34375 146.863281 " fill-opacity="1" fill-rule="nonzero"/></g><g fill="#000000" fill-opacity="1"><g transform="translate(108.993147, 228.514012)"><g><path d="M 23.0625 -6.460938 C 21.222656 -2.960938 17.632812 -0.582031 13.730469 -0.582031 C 12.335938 -0.582031 10.992188 -0.851562 9.78125 -1.390625 L 9.78125 -21.085938 C 10.992188 -21.578125 12.335938 -21.847656 13.730469 -21.847656 C 17.542969 -21.847656 21.175781 -19.515625 22.882812 -16.285156 C 22.972656 -16.152344 23.105469 -16.0625 23.195312 -16.0625 C 23.238281 -16.0625 23.328125 -16.0625 23.375 -16.105469 C 23.507812 -16.195312 23.554688 -16.332031 23.554688 -16.421875 C 23.554688 -16.511719 23.554688 -16.554688 23.507812 -16.644531 C 21.625 -20.097656 17.945312 -22.566406 13.730469 -22.566406 C 7.628906 -22.566406 2.648438 -17.453125 2.648438 -11.351562 C 2.648438 -4.933594 7.628906 0.132812 13.730469 0.132812 C 18.082031 0.132812 21.804688 -2.378906 23.644531 -6.058594 C 23.6875 -6.148438 23.6875 -6.191406 23.6875 -6.28125 C 23.6875 -6.503906 23.597656 -6.640625 23.375 -6.640625 C 23.238281 -6.640625 23.105469 -6.550781 23.0625 -6.460938 Z M 23.0625 -6.460938 "/></g></g></g><g fill="#000000" fill-opacity="1"><g transform="translate(132.54357, 228.514012)"><g><path d="M 10.410156 -22.433594 L 3.273438 -22.433594 L 3.273438 0 L 10.410156 0 Z M 10.410156 -22.433594 "/></g></g></g><g fill="#000000" fill-opacity="1"><g transform="translate(143.443637, 228.514012)"><g><path d="M 22.925781 -8.929688 L 3.859375 -22.386719 C 3.8125 -22.433594 3.679688 -22.433594 3.632812 -22.433594 C 3.410156 -22.433594 3.273438 -22.253906 3.273438 -22.074219 L 3.273438 -0.359375 C 3.273438 -0.179688 3.410156 0 3.632812 0 C 3.8125 0 3.992188 -0.179688 3.992188 -0.359375 L 3.992188 -13.503906 L 23.105469 0.222656 L 23.285156 0.222656 C 23.507812 0.222656 23.644531 0.0429688 23.644531 -0.179688 L 23.644531 -22.074219 C 23.644531 -22.253906 23.507812 -22.433594 23.285156 -22.433594 C 23.105469 -22.433594 22.925781 -22.253906 22.925781 -22.074219 Z M 22.925781 -8.929688 "/></g></g></g><g fill="#000000" fill-opacity="1"><g transform="translate(167.577228, 228.514012)"><g><path d="M 16.0625 -11.035156 C 16.285156 -11.035156 16.421875 -11.171875 16.421875 -11.394531 C 16.421875 -11.574219 16.285156 -11.753906 16.0625 -11.753906 L 10.410156 -11.753906 L 10.410156 -21.757812 L 20.683594 -21.757812 C 20.863281 -21.757812 21.042969 -21.847656 21.042969 -22.074219 C 21.042969 -22.253906 20.863281 -22.433594 20.683594 -22.433594 L 3.273438 -22.433594 L 3.273438 0 L 20.683594 0 C 20.863281 0 21.042969 -0.132812 21.042969 -0.3125 C 21.042969 -0.539062 20.863281 -0.671875 20.683594 -0.671875 C 20.683594 -0.671875 20.683594 -0.671875 10.410156 -0.671875 L 10.410156 -11.035156 Z M 16.0625 -11.035156 "/></g></g></g><g fill="#000000" fill-opacity="1"><g transform="translate(188.077205, 228.514012)"><g/></g></g><g fill="#000000" fill-opacity="1"><g transform="translate(197.541772, 228.514012)"><g><path d="M 12.113281 -22.433594 L 3.273438 -22.433594 L 3.273438 0 L 12.113281 0 C 18.214844 0 23.195312 -4.933594 23.195312 -11.351562 C 23.195312 -17.453125 18.214844 -22.433594 12.113281 -22.433594 Z M 12.113281 -0.671875 L 10.363281 -0.671875 L 10.363281 -21.757812 L 12.113281 -21.757812 C 17.8125 -21.757812 22.523438 -17.09375 22.523438 -11.351562 C 22.523438 -5.652344 17.8125 -0.671875 12.113281 -0.671875 Z M 12.113281 -0.671875 "/></g></g></g><g fill="#000000" fill-opacity="1"><g transform="translate(220.598737, 228.514012)"><g><path d="M 16.0625 -11.035156 C 16.285156 -11.035156 16.421875 -11.171875 16.421875 -11.394531 C 16.421875 -11.574219 16.285156 -11.753906 16.0625 -11.753906 L 10.410156 -11.753906 L 10.410156 -21.757812 L 20.683594 -21.757812 C 20.863281 -21.757812 21.042969 -21.847656 21.042969 -22.074219 C 21.042969 -22.253906 20.863281 -22.433594 20.683594 -22.433594 L 3.273438 -22.433594 L 3.273438 0 L 20.683594 0 C 20.863281 0 21.042969 -0.132812 21.042969 -0.3125 C 21.042969 -0.539062 20.863281 -0.671875 20.683594 -0.671875 C 20.683594 -0.671875 20.683594 -0.671875 10.410156 -0.671875 L 10.410156 -11.035156 Z M 16.0625 -11.035156 "/></g></g></g><g fill="#000000" fill-opacity="1"><g transform="translate(241.09872, 228.514012)"><g><path d="M 24.003906 -21.984375 C 24.136719 -22.164062 24.09375 -22.386719 23.914062 -22.476562 C 23.867188 -22.523438 23.777344 -22.523438 23.734375 -22.523438 C 23.554688 -22.523438 23.375 -22.433594 23.328125 -22.253906 L 15.925781 -8.300781 L 8.792969 -22.433594 L 0.808594 -22.433594 L 11.933594 -0.0898438 C 12.023438 0.0898438 12.070312 0.132812 12.160156 0.132812 C 12.25 0.132812 12.292969 0.0898438 12.335938 -0.0898438 Z M 24.003906 -21.984375 "/></g></g></g></svg>